<svg width="1526" height="1275" xmlns="http://www.w3.org/2000/svg" xmlns:xlink="http://www.w3.org/1999/xlink" xml:space="preserve" overflow="hidden"><defs><clipPath id="clip0"><rect x="330" y="531" width="1526" height="1275"/></clipPath><clipPath id="clip1"><rect x="501" y="1138" width="516" height="516"/></clipPath><clipPath id="clip2"><rect x="501" y="1138" width="516" height="516"/></clipPath><clipPath id="clip3"><rect x="501" y="1138" width="516" height="516"/></clipPath><clipPath id="clip4"><rect x="1140" y="662" width="549" height="546"/></clipPath><clipPath id="clip5"><rect x="1140" y="662" width="549" height="546"/></clipPath><clipPath id="clip6"><rect x="1140" y="662" width="549" height="546"/></clipPath><linearGradient x1="273" y1="514.757" x2="273" y2="31.2433" gradientUnits="userSpaceOnUse" spreadMethod="pad" id="fill7"><stop offset="0" stop-color="#0078D4"/><stop offset="0.16" stop-color="#1380DA"/><stop offset="0.53" stop-color="#3C91E5"/><stop offset="0.82" stop-color="#559CEC"/><stop offset="1" stop-color="#5EA0EF"/></linearGradient></defs><g clip-path="url(#clip0)" transform="translate(-330 -531)"><g clip-path="url(#clip1)"><g clip-path="url(#clip2)"><g clip-path="url(#clip3)"><path d="M1012.79 1399.21C1017.61 1394.39 1016.8 1385.56 1012.79 1380.74L987.891 1355.84 877.059 1248.22C872.241 1243.41 865.013 1243.41 859.391 1248.22L859.391 1248.22C854.572 1253.04 852.966 1261.88 859.391 1266.7L975.844 1380.74C980.663 1385.56 980.663 1394.39 975.844 1399.21L856.981 1517.27C852.163 1522.09 852.163 1530.93 856.981 1535.74L856.981 1535.74C861.8 1540.56 870.634 1539.76 874.65 1535.74L984.678 1426.52C984.678 1426.52 984.678 1426.52 985.481 1425.72L1012.79 1399.21Z" fill="#3999C6"/><path d="M505.212 1399.21C500.394 1394.39 501.197 1385.56 505.212 1380.74L530.109 1355.84 640.941 1248.22C645.759 1243.41 652.987 1243.41 658.609 1248.22L658.609 1248.22C663.428 1253.04 665.034 1261.88 658.609 1266.7L544.566 1380.74C539.747 1385.56 539.747 1394.39 544.566 1399.21L661.019 1517.27C665.837 1522.09 665.837 1530.93 661.019 1535.74L661.019 1535.74C656.2 1540.56 647.366 1539.76 643.35 1535.74L530.912 1428.12C530.912 1428.12 530.912 1428.12 530.109 1427.32L505.212 1399.21Z" fill="#3999C6"/><path d="M884.288 1159.08 727.678 1159.08 643.35 1396.8 746.15 1397.61 665.837 1632.92 887.5 1318.9 779.881 1318.9Z" fill="#FCD116"/><path d="M779.881 1318.9 884.288 1159.08 802.369 1159.08 715.631 1356.65 818.431 1357.45 665.837 1632.92 887.5 1318.9Z" fill="#FF8C00" fill-opacity="0.3"/></g></g></g><path d="M450.388 1551.12 419.037 1645.29 490.517 1716.85 584.57 1685.47C609.521 1699.44 636.042 1710.4 663.574 1718.11L707.466 1806 807.789 1806 851.68 1718.11C878.89 1710.62 905.023 1699.65 929.43 1685.47L1023.48 1716.85 1094.96 1645.29 1063.61 1551.12C1077.56 1526.14 1088.51 1499.58 1096.22 1472.02L1184 1428.07 1184 1327.63 1094.96 1284.94C1087.48 1257.7 1076.52 1231.53 1062.36 1207.09L1093.71 1112.93 1022.23 1041.36 928.176 1072.75C903.225 1058.77 876.704 1047.82 849.172 1040.1L806.535 952 706.211 952 662.32 1039.89C635.11 1047.38 608.977 1058.35 584.57 1072.53L490.517 1041.15 419.037 1112.71 450.388 1206.88C436.438 1231.86 425.493 1258.42 417.783 1285.98L330 1328.67 330 1429.12 417.783 1473.06C425.252 1500.38 436.211 1526.61 450.388 1551.12ZM355.081 1344.54 428.743 1308.71 438.989 1303.68 441.986 1292.69C449.185 1267.03 459.384 1242.31 472.371 1219.05L477.651 1209.43 474.189 1199.01 447.729 1119.54 497.301 1069.9 576.644 1096.39 587.366 1099.97 597.148 1094.29C619.68 1081.2 643.807 1071.07 668.929 1064.16L679.751 1061.21 684.767 1051.16 721.737 977.111 790.859 977.111 826.599 1050.94 831.615 1061.18 842.601 1064.19C868.217 1071.4 892.895 1081.62 916.125 1094.62L925.743 1099.92 936.152 1096.44 1015.5 1069.95 1065.07 1119.59 1038.61 1199.06 1035.03 1209.79 1040.7 1219.57C1053.79 1242.14 1063.9 1266.31 1070.8 1291.47L1073.82 1302.55 1084.17 1307.51 1158.92 1343.39 1158.92 1412.53 1084.99 1449.54 1074.96 1454.57 1072.01 1465.39C1064.81 1491.05 1054.61 1515.76 1041.63 1539.03L1036.35 1548.65 1039.81 1559.07 1066.27 1638.53 1016.7 1688.18 937.356 1661.69 926.634 1658.11 916.852 1663.78C894.317 1676.88 870.186 1687.01 845.058 1693.92L834.249 1696.87 829.233 1706.91 792.264 1780.99 722.99 1780.99 686.034 1706.91 681.018 1696.87 670.196 1693.92C644.583 1686.7 619.908 1676.48 596.684 1663.48L587.065 1658.18 576.657 1661.66 497.314 1688.15 447.742 1638.51 474.214 1559.07 477.776 1548.33 472.12 1538.54C459.031 1515.98 448.914 1491.81 442.023 1466.65L439.064 1455.82 429.031 1450.8 355.081 1413.79Z" fill="#3999C6" fill-rule="evenodd"/><path d="M1122.39 1130.12 1091.04 1224.29 1162.52 1295.85 1256.57 1264.47C1281.52 1278.44 1308.04 1289.4 1335.57 1297.11L1379.47 1385 1479.79 1385 1523.68 1297.11C1550.89 1289.62 1577.02 1278.65 1601.43 1264.47L1695.48 1295.85 1766.96 1224.29 1735.61 1130.12C1749.56 1105.14 1760.51 1078.58 1768.22 1051.02L1856 1007.07 1856 906.629 1766.96 863.939C1759.48 836.697 1748.52 810.534 1734.36 786.094L1765.71 691.926 1694.23 620.359 1600.18 651.748C1575.22 637.775 1548.7 626.816 1521.17 619.104L1478.53 531 1378.21 531 1334.32 618.89C1307.11 626.379 1280.98 637.352 1256.57 651.535L1162.52 620.146 1091.04 691.713 1122.39 785.88C1108.44 810.865 1097.49 837.418 1089.78 864.981L1002 907.671 1002 1008.12 1089.78 1052.06C1097.25 1079.38 1108.21 1105.61 1122.39 1130.12ZM1027.08 923.541 1100.74 887.707 1110.99 882.685 1113.99 871.686C1121.19 846.029 1131.38 821.312 1144.37 798.047L1149.65 788.429 1146.19 778.008 1119.73 698.543 1169.3 648.898 1248.64 675.39 1259.37 678.969 1269.15 673.294C1291.68 660.198 1315.81 650.069 1340.93 643.16L1351.75 640.209 1356.77 630.165 1393.74 556.111 1462.86 556.111 1498.6 629.939 1503.62 640.185 1514.6 643.185C1540.22 650.405 1564.9 660.62 1588.13 673.62L1597.74 678.919 1608.15 675.441 1687.5 648.948 1737.07 698.594 1710.61 778.058 1707.03 788.793 1712.7 798.574C1725.79 821.14 1735.9 845.306 1742.8 870.468L1745.82 881.555 1756.17 886.514 1830.92 922.386 1830.92 991.53 1756.99 1028.54 1746.96 1033.57 1744.01 1044.39C1736.81 1070.05 1726.61 1094.76 1713.63 1118.03L1708.35 1127.65 1711.81 1138.07 1738.27 1217.53 1688.7 1267.18 1609.36 1240.69 1598.63 1237.11 1588.85 1242.78C1566.32 1255.88 1542.19 1266.01 1517.06 1272.92L1506.25 1275.87 1501.23 1285.91 1464.26 1359.99 1394.99 1359.99 1358.03 1285.91 1353.02 1275.87 1342.2 1272.92C1316.58 1265.7 1291.91 1255.48 1268.68 1242.48L1259.07 1237.18 1248.66 1240.66 1169.31 1267.15 1119.74 1217.51 1146.21 1138.07 1149.78 1127.33 1144.12 1117.54C1131.03 1094.98 1120.91 1070.81 1114.02 1045.65L1111.06 1034.82 1101.03 1029.8 1027.08 992.786Z" fill="#2A89E0" fill-rule="evenodd"/><g clip-path="url(#clip4)"><g clip-path="url(#clip5)"><g clip-path="url(#clip6)"><path d="M515.667 121.333 515.667 416.78 394.333 516.273 206.267 447.72 206.267 515.667 99.7966 376.437 410.107 400.703 410.107 134.68ZM412.23 136.197 238.117 30.3333 238.117 99.7966 78.26 146.813 30.3333 208.39 30.3333 348.227 98.8866 378.56 98.8866 199.29Z" fill="url(#fill7)" transform="matrix(1.00183 0 0 1 1141 662)"/></g></g></g></g></svg>